<svg xmlns="http://www.w3.org/2000/svg" viewBox="0 0 1920 1080"><filter id="c"><feGaussianBlur stdDeviation="55" /></filter><path fill="#47691d" d="M0 0h1920v1080H0z"/><g filter='url(#c)' fill-opacity='.5'><ellipse fill="#9e9025" fill-opacity=".5" rx="1" ry="1" transform="matrix(547.8417 120.45081 -65.12277 296.19536 846.5 338.5)"/><ellipse fill="#c1000f" fill-opacity=".5" rx="1" ry="1" transform="matrix(185.52722 -223.68578 78.53072 65.13416 476.5 299.6)"/><ellipse fill="#a2ffaf" fill-opacity=".5" rx="1" ry="1" transform="matrix(37.18933 53.70822 -316.18673 218.93807 1572.7 1077.2)"/><ellipse fill="#003d02" fill-opacity=".5" rx="1" ry="1" transform="rotate(-57.3 1328.3 -1468.3) scale(539.75857 225.33667)"/><ellipse fill="#022701" fill-opacity=".5" rx="1" ry="1" transform="matrix(-87.19284 1056.65608 -163.75482 -13.51267 3.8 657.6)"/><path fill="#252825" fill-opacity=".5" d="M738.8 408.8l-315 787.5-540-307.5z"/><ellipse fill="#57a61f" fill-opacity=".5" rx="1" ry="1" transform="matrix(413.87771 131.35373 -136.29032 429.43222 1060.5 505.8)"/><path fill="#136a0f" fill-opacity=".5" d="M461.3 1076.3l1027.5 22.5 262.5-592.5z"/></g></svg>