<?xml version="1.0" encoding="iso-8859-1"?>
<!-- Generator: Adobe Illustrator 19.0.0, SVG Export Plug-In . SVG Version: 6.00 Build 0)  -->
<svg xmlns="http://www.w3.org/2000/svg" xmlns:xlink="http://www.w3.org/1999/xlink" version="1.1" id="Capa_1" x="0px" y="0px" viewBox="0 0 512 512" style="enable-background:new 0 0 512 512;" xml:space="preserve">
<g>
	<g>
		<path d="M329.473,318.844L266.627,256l62.844-62.845c2.935-2.934,2.935-7.693,0-10.627c-2.934-2.934-7.693-2.934-10.627,0    L256,245.373l-62.845-62.844c-2.934-2.934-7.693-2.934-10.627,0c-2.935,2.934-2.935,7.693,0,10.627L245.372,256l-62.844,62.844    c-2.935,2.936-2.935,7.693,0,10.628c1.467,1.467,3.39,2.201,5.314,2.201c1.924,0,3.846-0.734,5.314-2.201L256,266.627    l62.845,62.845c1.467,1.467,3.39,2.201,5.314,2.201c1.924,0,3.846-0.734,5.314-2.201    C332.408,326.537,332.408,321.779,329.473,318.844z" fill="#ffffff"/>
	</g>
</g>
</svg>
