<?xml version="1.0" encoding="iso-8859-1"?>
<!-- Generator: Adobe Illustrator 19.0.0, SVG Export Plug-In . SVG Version: 6.00 Build 0)  -->
<svg version="1.1" id="Layer_1" xmlns="http://www.w3.org/2000/svg" xmlns:xlink="http://www.w3.org/1999/xlink" x="0px" y="0px"
	 viewBox="0 0 512 512" style="enable-background:new 0 0 512 512;" xml:space="preserve">
<path style="fill:#F94851;" d="M509.344,460.891L392.976,351.368c-1.566-1.474-3.635-2.294-5.785-2.294h-50.09
	c-4.529,0-8.252,3.576-8.433,8.102c-0.546,13.648-2.329,27.494-5.301,41.151c-0.882,4.057,1.318,8.154,5.186,9.659l171.945,66.916
	c1,0.389,2.036,0.576,3.058,0.576c2.828,0,5.555-1.426,7.139-3.935C512.853,468.126,512.286,463.66,509.344,460.891z"/>
<path style="fill:#CC333E;" d="M355.719,349.075l125.517,118.33l19.263,7.496c1,0.389,2.036,0.576,3.058,0.576
	c2.828,0,5.555-1.426,7.139-3.935c2.157-3.416,1.59-7.882-1.351-10.651L392.978,351.369c-1.566-1.474-3.635-2.294-5.785-2.294
	L355.719,349.075L355.719,349.075z"/>
<path style="fill:#FF9F34;" d="M77.219,114.489c-8.914-6.367-27.343-12.519-50.618,17.821c-2.135,2.783-2.307,6.592-0.46,9.575
	c0.16,0.258,0.332,0.505,0.515,0.74c5.662,8.207,15.12,14.008,28.12,17.25c9.261,2.309,17.104,2.431,17.434,2.435
	c0.034,0,0.07,0,0.104,0c2.219,0,4.35-0.874,5.931-2.435c1.606-1.585,2.508-3.748,2.508-6.004v-32.514
	C80.753,118.631,79.437,116.072,77.219,114.489z"/>
<path style="fill:#FFD039;" d="M79.456,73.625c4.63,0.137,8.525-3.569,8.642-8.228c0.116-4.66-3.568-8.531-8.228-8.647
	c-2.236-0.055-55.032-1.003-73.612,30.194c-10.72,17.999-7.655,41.93,9.111,71.128c1.507,2.624,4.301,4.237,7.318,4.237
	c0.063,0,0.124,0,0.187-0.002c3.087-0.068,5.891-1.816,7.311-4.56c3.712-7.177,17.034-28.322,29.145-31.242
	c2.932-0.707,5.425-0.178,8.079,1.717c3.794,2.71,9.066,1.83,11.772-1.962c2.71-3.793,1.831-9.064-1.961-11.772
	c-1.207-0.862-2.446-1.615-3.711-2.263l5.049-38.607C79.099,73.618,79.412,73.624,79.456,73.625z"/>
<path style="fill:#FF9F34;" d="M239.835,399.628h-27.128l17.592-42.221c1.794-4.303-0.242-9.244-4.544-11.037
	c-4.3-1.791-9.243,0.241-11.037,4.544l-20.297,48.713h-43.146c-4.662,0-8.439,3.779-8.439,8.439c0,4.661,3.777,8.439,8.439,8.439
	H200c0.015,0,0.03,0.002,0.045,0.002c0.01,0,0.02-0.002,0.03-0.002h39.761c4.662,0,8.439-3.779,8.439-8.439
	C248.276,403.406,244.497,399.628,239.835,399.628z"/>
<path style="fill:#0088FA;" d="M364.79,322.678l-26.822-27.292c-2.434-2.477-6.132-3.455-9.357-2.168
	c-3.99,1.592-6.094,5.839-5.082,9.893c4.172,16.712,5.904,34.865,5.148,53.96c-0.043,1.083,0.077,2.179,0.441,3.199
	c1.264,3.54,4.512,5.684,7.988,5.684h24.67h27.686h19.01l-15.496-14.585L364.79,322.678z"/>
<path style="fill:#006FEC;" d="M373.653,365.954h34.819l-15.496-14.585l-28.187-28.691l-26.822-27.292
	c-2.434-2.477-6.132-3.455-9.357-2.168c-3.99,1.592-6.094,5.839-5.082,9.893c1.466,5.874,2.614,11.935,3.475,18.143
	c2.797,2.399,3.352,4.485,6.817,7.055L373.653,365.954z"/>
<path style="fill:#F94851;" d="M328.782,267.638c-19.794-42.022-56.214-72.874-108.245-91.742l-19.994-20.345v-35.559
	c0-46.025-37.444-83.47-83.47-83.47c-29.334,0-53.2,23.866-53.2,53.2v127.219c0,82.167,66.846,149.013,149.013,149.013h14.163
	c25.613,23.026,57.236,46.008,94.923,63.859c1.142,0.541,2.377,0.812,3.613,0.812c1.088,0,2.176-0.21,3.205-0.632
	c2.195-0.901,3.911-2.686,4.724-4.917C334.752,421.684,363.41,341.146,328.782,267.638z"/>
<path style="fill:#CC333E;" d="M328.782,267.638c-19.794-42.022-56.214-72.874-108.245-91.742l-19.994-20.345v-35.559
	c0-46.025-37.444-83.47-83.47-83.47c-5.221,0-10.264,0.769-15.035,2.177c36.963,8.578,64.601,41.757,64.601,81.292v35.559
	l19.994,20.345c52.031,18.867,88.45,49.721,108.245,91.742c29.763,63.182,12.772,131.558,6.626,151.675
	c6.612,3.656,13.435,7.168,20.469,10.5c1.142,0.541,2.377,0.812,3.613,0.812c1.088,0,2.176-0.21,3.205-0.632
	c2.195-0.901,3.911-2.686,4.724-4.917C334.752,421.684,363.41,341.146,328.782,267.638z"/>
<path style="fill:#FFD039;" d="M338.301,292.988c-0.242-0.811-0.483-1.623-0.736-2.435c-1.053,0.183-2.118,0.374-3.201,0.577
	c-71.37,13.385-176.068-19.2-191.429-24.183c17.363,26.62,45.074,63.46,83.942,99.007h0.172
	c25.613,23.026,57.236,46.007,94.923,63.859c1.142,0.541,2.377,0.812,3.613,0.812c1.088,0,2.176-0.21,3.205-0.632
	c2.195-0.901,3.911-2.686,4.724-4.917C334.61,422.072,357.21,358.545,338.301,292.988z"/>
<path style="fill:#0088FA;" d="M345.596,338.565c-95.426,17.101-156.078-19.878-177.329-36.166
	c15.54,19.949,35.016,41.99,58.592,63.555h0.19c25.613,23.026,57.236,46.008,94.923,63.859c1.142,0.541,2.377,0.812,3.613,0.812
	c1.088,0,2.176-0.21,3.205-0.632c2.195-0.901,3.911-2.686,4.724-4.917C334.35,422.785,347.689,385.302,345.596,338.565z"/>
<path style="fill:#D9D9DB;" d="M63.892,218.37c3.468-0.183,7.231-0.658,8.443-0.658c0.573,0,1.149-0.059,1.722-0.178
	c50.433-10.511,85.657-47.12,85.657-89.027c0-17.969-6.426-35.364-18.585-50.305c-11.522-14.158-27.649-25.479-46.655-32.75
	c-2.578-1.095-5.525-0.823-7.871,0.698c-0.318,0.223-0.636,0.446-0.95,0.675c-0.34,0.25-0.674,0.506-1.007,0.763
	c-0.435,0.336-0.872,0.671-1.296,1.019c-0.277,0.227-0.542,0.465-0.815,0.698c-0.782,0.67-1.545,1.362-2.288,2.075
	c-0.3,0.289-0.607,0.575-0.9,0.87c-0.348,0.35-0.682,0.711-1.021,1.07c-0.339,0.361-0.676,0.725-1.005,1.095
	c-0.289,0.325-0.573,0.654-0.854,0.986c-0.398,0.471-0.788,0.951-1.169,1.436c-0.196,0.249-0.396,0.495-0.587,0.747
	c-1.849,2.44-3.487,5.024-4.888,7.734c-0.003,0.008-0.008,0.016-0.011,0.023c-2.378,4.603-4.08,9.551-5.038,14.686
	c-0.024,0.126-0.045,0.253-0.068,0.379c-0.151,0.842-0.277,1.688-0.387,2.539c-0.028,0.217-0.059,0.434-0.083,0.653
	c-0.091,0.785-0.16,1.575-0.216,2.368c-0.017,0.242-0.042,0.482-0.055,0.724c-0.057,1.007-0.092,2.018-0.092,3.031v119.528v7.691
	C63.874,217.419,63.888,217.894,63.892,218.37z"/>
<path style="fill:#ADACB2;" d="M141.13,78.204c-11.522-14.158-27.649-25.479-46.654-32.75c-2.578-1.095-5.525-0.823-7.871,0.698
	c-0.318,0.223-0.636,0.446-0.95,0.675c-0.34,0.25-0.674,0.506-1.007,0.763c-0.435,0.336-0.872,0.671-1.296,1.019
	c-0.277,0.227-0.542,0.465-0.815,0.698c-0.782,0.67-1.545,1.362-2.288,2.075c-0.3,0.289-0.607,0.575-0.9,0.87
	c-0.131,0.132-0.257,0.269-0.385,0.404c12.302,6.776,22.893,15.432,31.125,25.547c12.158,14.94,18.585,32.336,18.585,50.305
	c0,35.845-25.783,67.798-64.799,82.874v5.559c0,0.477,0.014,0.952,0.018,1.429c3.468-0.183,7.231-0.658,8.443-0.658
	c0.573,0,1.149-0.059,1.722-0.178c50.433-10.511,85.657-47.12,85.657-89.027C159.715,110.539,153.289,93.144,141.13,78.204z"/>
<path style="fill:#2B2B2B;" d="M113.093,112.534c-5.375,0-9.749-4.366-9.749-9.732c0-5.368,4.374-9.732,9.749-9.732
	c5.375,0,9.749,4.366,9.749,9.732C122.843,108.168,118.47,112.534,113.093,112.534z"/>
<path style="fill:#FF9F34;" d="M333.623,424.773c0.021-0.059,0.043-0.12,0.068-0.192c0.018-0.049,0.038-0.109,0.059-0.165
	c0.025-0.071,0.051-0.144,0.079-0.225c0.025-0.072,0.052-0.151,0.079-0.23c0.028-0.081,0.057-0.167,0.088-0.255
	c0.033-0.097,0.068-0.199,0.104-0.305c0.027-0.079,0.055-0.164,0.083-0.249c0.043-0.127,0.086-0.257,0.132-0.395
	c0.026-0.078,0.054-0.162,0.081-0.244c0.052-0.158,0.104-0.316,0.16-0.487c0.018-0.056,0.038-0.119,0.057-0.177
	c0.3-0.927,0.648-2.036,1.034-3.32c0.009-0.03,0.018-0.059,0.027-0.089c0.091-0.305,0.185-0.621,0.28-0.944
	c0.016-0.055,0.033-0.109,0.048-0.165c0.092-0.315,0.187-0.641,0.284-0.974c0.02-0.071,0.041-0.142,0.061-0.214
	c0.098-0.343,0.198-0.695,0.299-1.057c0.013-0.047,0.027-0.096,0.04-0.144c5.855-20.895,16.369-70.803,1.619-121.949
	c-0.001-0.003-0.001-0.006-0.002-0.008c-0.241-0.811-0.483-1.622-0.736-2.433c-1.053,0.183-2.118,0.374-3.201,0.577
	c-9.388,1.761-19.357,2.72-29.619,3.057c15.373,54.738,2.05,107.81-3.241,125.126c1.951,1.079,3.927,2.141,5.915,3.195
	c0.632,0.334,1.269,0.665,1.905,0.997c1.481,0.773,2.971,1.538,4.472,2.297c0.631,0.318,1.26,0.638,1.895,0.954
	c2.077,1.033,4.166,2.057,6.281,3.058c1.142,0.541,2.377,0.812,3.613,0.812c1.088,0,2.176-0.21,3.205-0.632
	c2.195-0.901,3.911-2.686,4.724-4.917c0.018-0.048,0.043-0.117,0.072-0.198C333.596,424.849,333.611,424.808,333.623,424.773z"/>
<path style="fill:#006FEC;" d="M333.653,424.69c0.035-0.098,0.075-0.215,0.12-0.342c0.018-0.052,0.035-0.101,0.055-0.159
	c0.135-0.389,0.306-0.891,0.506-1.499c0.018-0.053,0.036-0.108,0.054-0.163c0.095-0.288,0.196-0.598,0.303-0.929
	c0.011-0.036,0.022-0.07,0.034-0.106c0.245-0.764,0.52-1.643,0.817-2.626c0.016-0.051,0.03-0.102,0.046-0.153
	c0.457-1.515,0.967-3.275,1.509-5.264c0.007-0.025,0.013-0.051,0.02-0.075c0.551-2.027,1.135-4.287,1.729-6.762
	c0.002-0.008,0.005-0.016,0.006-0.024c2.79-11.628,5.8-27.964,6.698-46.842c0.001-0.034,0.003-0.069,0.005-0.102
	c0.188-3.994,0.281-8.101,0.259-12.3c0-0.083-0.001-0.165-0.001-0.249c-0.018-2.804-0.088-5.649-0.216-8.531
	c-11.787,2.112-23.043,3.397-33.76,4c0.938,35.253-6.645,64.682-10.331,76.749c1.951,1.079,3.927,2.141,5.915,3.195
	c0.632,0.334,1.269,0.665,1.905,0.997c1.481,0.773,2.971,1.538,4.472,2.297c0.631,0.318,1.26,0.638,1.895,0.954
	c2.077,1.033,4.166,2.057,6.281,3.058c1.142,0.541,2.377,0.812,3.613,0.812c1.088,0,2.176-0.21,3.205-0.632
	c2.195-0.901,3.911-2.686,4.724-4.917c0.022-0.061,0.059-0.161,0.098-0.272C333.624,424.771,333.639,424.728,333.653,424.69z"/>
<g>
</g>
<g>
</g>
<g>
</g>
<g>
</g>
<g>
</g>
<g>
</g>
<g>
</g>
<g>
</g>
<g>
</g>
<g>
</g>
<g>
</g>
<g>
</g>
<g>
</g>
<g>
</g>
<g>
</g>
</svg>
