<?xml version="1.0" encoding="iso-8859-1"?>
<!-- Generator: Adobe Illustrator 16.0.0, SVG Export Plug-In . SVG Version: 6.00 Build 0)  -->
<svg xmlns="http://www.w3.org/2000/svg" xmlns:xlink="http://www.w3.org/1999/xlink" version="1.1"  x="0px" y="0px" width="512px" height="512px" viewBox="0 0 836.908 836.908" style="enable-background:new 0 0 836.908 836.908;" xml:space="preserve">
<g>
	<path d="M83.039,414.25l169.9,169.8l169.8,169.801c7.4,7.399,19.4,6.899,26.2-1c41.7-48.4,62.6-108.5,62.7-168.601l179.2-179.2   l-129.5-129.499l-129.4-129.4l-179.2,179.2c-60.1,0-120.3,20.899-168.6,62.699C76.239,394.851,75.739,406.851,83.039,414.25z" fill="#FFFFFF"/>
	<path d="M22.039,835.95c25.3-7.9,67.6-21.1,100.9-32.3c11.3-3.8,21.5-10.101,29.9-18.5l116.9-116.9l-50.5-50.5l-50.5-50.5   l-117,116.9c-8.4,8.399-14.7,18.6-18.5,29.899c-11.2,33.4-24.4,75.601-32.3,100.9C-3.361,828.95,8.039,840.351,22.039,835.95z" fill="#FFFFFF"/>
	<path d="M521.039,5.25c-7-7-18.3-7-25.3,0l-56,56c-7,7-7,18.301,0,25.301l155.3,155.3l155.301,155.3c7,7,18.3,7,25.3,0l56-56   c7-7,7-18.3,0-25.3l-155.3-155.3L521.039,5.25z" fill="#FFFFFF"/>
</g>
</svg>
