<?xml version='1.0' encoding='iso-8859-1'?>
<svg version="1.1" xmlns="http://www.w3.org/2000/svg" viewBox="0 0 297.561 297.561" >
  <g>
    <g>
      <path fill="rgb(159, 159, 159)" stroke-width="50" d="m147.91,108.757c-29.582,0-52.204,22.621-52.204,52.204s22.621,52.204 52.204,52.204 52.204-22.621 52.204-52.204c-0.001-29.582-22.622-52.204-52.204-52.204zm0,87.006c-19.141,0-34.802-15.661-34.802-34.802s15.661-34.802 34.802-34.802 34.802,15.661 34.802,34.802-15.661,34.802-34.802,34.802z"/>
      <path fill="rgb(159, 159, 159)" d="m271.458,70.475h-41.763c-5.22,0-8.701-3.48-8.701-8.701v-3.48c0-13.921-12.181-26.102-26.102-26.102h-92.226c-13.921,0-26.102,12.181-26.102,26.102v3.48c0,5.22-3.48,8.701-8.701,8.701h-41.761c-13.921,0-26.102,12.181-26.102,26.102v142.69c0,13.921 12.181,26.102 26.102,26.102h243.617c13.921,0 26.102-12.181 27.842-26.102v-142.69c-0.001-13.922-12.182-26.102-26.103-26.102zm6.961,168.791c0,5.22-3.48,8.701-8.701,8.701h-243.617c-5.22,0-8.701-3.48-8.701-8.701v-142.69c0-5.22 3.48-8.701 8.701-8.701h40.023c13.921,0 26.102-12.181 26.102-26.102v-3.48c0-5.22 3.48-8.701 8.701-8.701h92.226c5.22,0 8.701,3.48 8.701,8.701v3.48c0,13.921 12.181,26.102 26.102,26.102h41.763c5.22,0 8.701,3.48 8.701,8.701l-.001,142.69z"/>
    </g>
  </g>
</svg>
