<svg xmlns="http://www.w3.org/2000/svg" viewBox="0 0 32 32" fill="rgba(0, 0, 0, 0.7)"><path d="M10.7 30c-2.5 0-5-1.1-6.8-2.9-3.8-3.8-3.8-10 0-13.9L14.8 2 17 4.1 5.9 15.4c-2.6 2.7-2.6 7 0 9.7 1.2 1.2 2.9 2 4.7 2s3.5-.7 4.7-2l11.5-11.8c.8-.8 1.2-1.8 1.2-3s-.5-2.2-1.2-3c-1.6-1.6-4.2-1.6-5.8 0L10.1 18.6c-.3.3-.5.7-.5 1.1s.2.8.5 1.1c.6.6 1.5.6 2.2 0l11-11.2 2.1 2.1-11 11.3c-1.8 1.8-4.6 1.8-6.3 0-.8-.9-1.3-2-1.3-3.2 0-1.2.5-2.4 1.3-3.2L19 5.2c2.7-2.8 7.2-2.8 9.9 0 1.3 1.4 2.1 3.2 2.1 5.2s-.8 3.7-2.1 5.1L17.4 27.1C15.6 29 13.2 30 10.7 30z"/></svg>